<?xml version="1.0" encoding="UTF-8"?>
<svg id="Layer_1" data-name="Layer 1" xmlns="http://www.w3.org/2000/svg" version="1.1" viewBox="0 0 465.864 123.974">
  <g>
    <path d="M155.384,47.133c0,.344-.137.617-.411.686-2.056.89-5.071,1.165-8.634,1.165-10.963,0-22.131-6.509-22.131-23.227,0-13.704,9.113-23.159,23.021-23.159,4.18,0,6.783.48,8.222,1.165.206.069.343.274.343.617v4.385c0,.48-.274.48-.48.342-1.781-.89-4.659-1.439-8.222-1.439-10.209,0-17.198,6.921-17.198,17.884,0,14.457,10.209,18.362,16.992,18.362,3.289,0,5.687-.274,8.085-1.166.205-.068.411-.068.411.274v4.111Z" fill="#5e7461" stroke-width="0"/>
    <path d="M185.937,27.059v15.69c0,1.166,0,2.124.137,3.221,0,.069,0,.205-.137.274-4.591,2.124-8.29,2.741-12.264,2.741-7.126,0-12.333-3.632-12.333-10.621,0-7.262,6.578-10.482,14.731-10.482,2.329,0,3.7.068,4.385.137v-1.781c0-2.193-.891-6.851-7.331-6.851-3.152,0-6.029.753-8.359,1.987-.205.068-.411,0-.411-.342v-4.043c0-.274.069-.412.342-.549,2.467-1.233,5.755-1.987,9.318-1.987,8.428,0,11.922,5.55,11.922,12.608ZM180.456,32.471c-.891-.137-2.261-.205-4.18-.205-6.372,0-9.455,2.192-9.455,6.097,0,3.015,1.987,6.099,7.811,6.099,2.193,0,4.042-.342,5.824-1.097v-10.894Z" fill="#5e7461" stroke-width="0"/>
    <path d="M196.965,48.367c-.343,0-.48-.137-.48-.48v-25.694c0-2.878-.137-5.412-.206-6.714-.069-.274.069-.412.343-.412h4.18c.342,0,.411.137.548.342.205.685.342,2.124.411,3.151,3.015-2.877,6.235-4.111,9.866-4.111,3.974,0,6.852,1.507,8.702,4.797,2.809-2.81,6.304-4.797,10.963-4.797,4.933,0,10.757,2.466,10.757,12.745v20.76c0,.274-.206.412-.548.412h-4.591c-.343,0-.479-.137-.479-.48v-20.281c0-4.59-1.987-8.221-6.646-8.221-3.289,0-5.961,1.438-8.017,3.768.137.822.274,2.741.274,4.385v20.349c0,.342-.069.48-.411.48h-4.659c-.342,0-.48-.137-.48-.48v-20.486c0-5.07-2.261-8.016-6.509-8.016-3.152,0-5.481,1.233-7.879,3.699v24.871c0,.274-.137.412-.411.412h-4.728Z" fill="#5e7461" stroke-width="0"/>
    <path d="M280.274,30.552c0,12.47-9.456,18.432-18.774,18.432-1.439,0-2.329-.069-3.22-.205v13.36c0,.273-.069.41-.411.48-1.508.137-4.454.48-4.796.48-.274,0-.411-.069-.411-.342V20.207c0-.549-.069-2.056-.137-2.878,0-.137,0-.274.206-.342,2.329-.822,6.646-2.536,12.059-2.536,9.798,0,15.485,6.783,15.485,16.101ZM258.28,20.343v23.502c1.028.274,2.329.342,3.632.342,6.372,0,12.676-4.248,12.676-13.223,0-7.126-3.769-11.648-10.483-11.648-2.193,0-4.111.412-5.824,1.027Z" fill="#5e7461" stroke-width="0"/>
    <path d="M314.116,41.241c0,3.358.206,5.276.343,6.714.068.274-.069.412-.411.412h-4.248c-.274,0-.411-.068-.48-.342-.205-.754-.411-1.919-.411-2.809-2.741,2.809-6.235,3.768-9.524,3.768-5.481,0-10.825-2.673-10.825-12.402V15.548c0-.342.068-.48.411-.48h4.728c.342,0,.411.137.411.412v20.417c0,5.139,2.398,8.153,6.92,8.153,3.083,0,5.55-1.165,7.468-3.356V15.48c0-.274.137-.412.48-.412h4.728c.343,0,.411.137.411.412v25.762Z" fill="#5e7461" stroke-width="0"/>
    <path d="M334.255,19.111c-4.317,0-5.824,2.192-5.824,4.18,0,2.124,1.165,3.563,6.167,5.687,6.646,2.74,9.318,5.55,9.318,10.345,0,6.304-5.139,9.662-11.853,9.662-3.7,0-6.92-.754-8.838-1.851-.274-.205-.343-.342-.343-.616v-4.592c0-.273.206-.41.411-.273,2.604,1.849,5.961,2.604,8.838,2.604,4.248,0,6.304-1.919,6.304-4.454,0-2.398-1.439-3.905-6.098-6.029-6.441-2.604-9.25-5.344-9.25-10.14,0-5.002,4.111-9.182,11.305-9.182,3.632,0,6.304.617,7.674,1.371.274.205.274.41.274.685v4.18c0,.342-.137.48-.48.342-1.85-1.166-4.865-1.919-7.605-1.919Z" fill="#5e7461" stroke-width="0"/>
    <path d="M132.43,121.372c0,.342-.137.48-.48.48h-4.659c-.343,0-.48-.137-.48-.548v-44.125c0-.274.069-.412.48-.412h4.728c.274,0,.411.137.411.48v44.125ZM132.704,99.584c-.343-.342-.343-.617,0-.959l19.322-21.514c.206-.206.343-.344.685-.344h5.276c.411,0,.48.344.274.617l-19.185,20.829c-.137.206-.137.344,0,.549l20.692,22.473c.205.274.068.617-.274.617h-5.755c-.411,0-.617-.068-.891-.412l-20.144-21.856Z" fill="#5e7461" stroke-width="0"/>
    <path d="M169.561,88.553c.342,0,.479.137.548.412.274.822.48,3.151.548,4.59,2.33-3.153,6.441-5.619,10.689-5.619.274,0,.411.069.411.412v4.933c0,.274-.069.342-.48.342-4.522-.068-8.633,2.193-10.346,4.797v23.021c0,.344-.137.412-.48.412h-4.728c-.342,0-.411-.137-.411-.48v-23.707c0-3.014-.137-6.783-.342-8.701-.069-.274,0-.412.342-.412h4.248Z" fill="#5e7461" stroke-width="0"/>
    <path d="M187.646,78.618c0-1.987,1.37-3.426,3.357-3.426,2.124,0,3.357,1.439,3.357,3.426,0,2.055-1.37,3.426-3.426,3.426-1.987,0-3.289-1.371-3.289-3.426ZM188.194,89.033c0-.342.069-.48.411-.48h4.728c.343,0,.48.068.48.412v32.408c0,.342-.137.48-.48.48h-4.659c-.342,0-.48-.137-.48-.48v-32.34Z" fill="#5e7461" stroke-width="0"/>
    <path d="M213.885,92.596c-4.316,0-5.824,2.192-5.824,4.18,0,2.124,1.165,3.563,6.167,5.687,6.646,2.74,9.318,5.55,9.318,10.345,0,6.304-5.139,9.662-11.853,9.662-3.7,0-6.92-.754-8.839-1.851-.274-.205-.342-.342-.342-.616v-4.592c0-.273.206-.41.411-.273,2.604,1.849,5.961,2.604,8.839,2.604,4.248,0,6.303-1.919,6.303-4.454,0-2.398-1.439-3.905-6.098-6.029-6.44-2.604-9.25-5.344-9.25-10.14,0-5.002,4.111-9.182,11.305-9.182,3.631,0,6.303.617,7.674,1.371.274.205.274.41.274.685v4.18c0,.342-.137.48-.479.342-1.85-1.166-4.865-1.919-7.606-1.919Z" fill="#5e7461" stroke-width="0"/>
    <path d="M245.809,120.962c0,.273,0,.478-.343.616-1.507.686-3.152.891-4.933.891-4.933,0-7.811-2.398-7.811-8.77v-20.281h-4.522c-.343-.069-.411-.205-.411-.548v-3.837c0-.342.068-.48.411-.48h4.522c.068-2.536.343-7.194.617-8.633.069-.342.206-.412.411-.48l4.591-.754c.205-.068.411,0,.411.274-.206,2.261-.411,6.097-.411,9.592h6.989c.274,0,.411.137.411.48v3.973c0,.274-.137.342-.411.412h-7.057v19.459c0,3.083,1.165,4.865,4.111,4.865.959,0,1.918-.137,3.083-.549.206,0,.343,0,.343.342v3.427Z" fill="#5e7461" stroke-width="0"/>
    <path d="M252.726,78.618c0-1.987,1.37-3.426,3.357-3.426,2.124,0,3.357,1.439,3.357,3.426,0,2.055-1.37,3.426-3.426,3.426-1.987,0-3.289-1.371-3.289-3.426ZM253.274,89.033c0-.342.069-.48.411-.48h4.728c.342,0,.48.068.48.412v32.408c0,.342-.137.48-.48.48h-4.659c-.343,0-.48-.137-.48-.48v-32.34Z" fill="#5e7461" stroke-width="0"/>
    <path d="M291.846,100.544v15.69c0,1.166,0,2.124.137,3.221,0,.069,0,.205-.137.274-4.591,2.124-8.29,2.741-12.264,2.741-7.126,0-12.333-3.632-12.333-10.621,0-7.262,6.578-10.482,14.731-10.482,2.329,0,3.7.068,4.385.137v-1.781c0-2.193-.891-6.851-7.331-6.851-3.152,0-6.029.753-8.359,1.987-.205.068-.411,0-.411-.342v-4.043c0-.274.069-.412.342-.549,2.467-1.233,5.755-1.987,9.318-1.987,8.428,0,11.922,5.55,11.922,12.608ZM286.365,105.956c-.891-.137-2.261-.205-4.18-.205-6.372,0-9.455,2.192-9.455,6.097,0,3.015,1.987,6.099,7.811,6.099,2.193,0,4.042-.342,5.824-1.097v-10.894Z" fill="#5e7461" stroke-width="0"/>
    <path d="M302.394,96.296c0-2.33-.137-6.167-.206-7.331-.069-.274.069-.412.411-.412h4.111c.274,0,.48.137.548.412.205.616.342,1.849.411,3.219,2.877-2.809,6.303-4.248,10.072-4.248,4.59,0,10.688,2.261,10.688,12.813v20.624c0,.342-.205.48-.479.48h-4.659c-.342,0-.48-.137-.48-.48v-20.144c0-4.933-2.124-8.358-6.715-8.358-3.289,0-6.03,1.507-8.085,4.041v24.461c0,.342-.137.48-.411.48h-4.728c-.343,0-.48-.137-.48-.48v-25.077Z" fill="#5e7461" stroke-width="0"/>
    <path d="M348.089,92.596c-4.316,0-5.824,2.192-5.824,4.18,0,2.124,1.165,3.563,6.167,5.687,6.646,2.74,9.318,5.55,9.318,10.345,0,6.304-5.139,9.662-11.853,9.662-3.7,0-6.92-.754-8.839-1.851-.274-.205-.342-.342-.342-.616v-4.592c0-.273.206-.41.411-.273,2.604,1.849,5.961,2.604,8.839,2.604,4.248,0,6.304-1.919,6.304-4.454,0-2.398-1.439-3.905-6.098-6.029-6.441-2.604-9.25-5.344-9.25-10.14,0-5.002,4.111-9.182,11.305-9.182,3.632,0,6.303.617,7.674,1.371.274.205.274.41.274.685v4.18c0,.342-.137.48-.48.342-1.85-1.166-4.865-1.919-7.606-1.919Z" fill="#5e7461" stroke-width="0"/>
    <path d="M391.183,114.726c0,3.358.206,5.276.342,6.714.069.274-.069.412-.411.412h-4.248c-.274,0-.411-.068-.48-.342-.206-.754-.411-1.919-.411-2.809-2.741,2.809-6.235,3.768-9.524,3.768-5.481,0-10.826-2.673-10.826-12.402v-21.034c0-.342.069-.48.411-.48h4.728c.343,0,.411.137.411.412v20.417c0,5.139,2.398,8.153,6.92,8.153,3.083,0,5.55-1.165,7.468-3.356v-25.214c0-.274.137-.412.48-.412h4.728c.342,0,.411.137.411.412v25.762Z" fill="#5e7461" stroke-width="0"/>
    <path d="M401.799,96.296c0-2.33-.137-6.167-.205-7.331-.069-.274.068-.412.411-.412h4.111c.274,0,.48.137.548.412.206.616.342,1.849.411,3.219,2.878-2.809,6.304-4.248,10.072-4.248,4.591,0,10.689,2.261,10.689,12.813v20.624c0,.342-.206.48-.48.48h-4.659c-.343,0-.479-.137-.479-.48v-20.144c0-4.933-2.124-8.358-6.715-8.358-3.289,0-6.029,1.507-8.085,4.041v24.461c0,.342-.137.48-.411.48h-4.728c-.342,0-.48-.137-.48-.48v-25.077Z" fill="#5e7461" stroke-width="0"/>
    <path d="M436.121,105.476c0-10.072,7.195-17.54,17.952-17.54,1.781,0,2.741.137,3.974.342v-14.867c0-.274.137-.412.411-.412h4.864c.274,0,.343.137.343.342v43.029c0,.959,0,2.056.137,3.221,0,.274-.068.342-.342.48-3.7,1.781-7.331,2.398-10.963,2.398-9.318,0-16.376-5.687-16.376-16.993ZM458.047,93.418c-1.027-.48-2.466-.685-4.179-.685-7.468,0-12.059,5.275-12.059,12.469,0,8.977,5.413,12.333,11.168,12.333,1.713,0,3.632-.136,5.07-.753v-23.364Z" fill="#5e7461" stroke-width="0"/>
  </g>
  <g>
    <path d="M.761,52.255v69.714c0,.276.224.5.5.5h37.81c.349,0,.59-.348.469-.675L13.568,52.081c-.073-.196-.26-.325-.469-.325H1.261c-.276,0-.5.224-.5.5Z" fill="#5e7461" stroke-width="0"/>
    <path d="M11.188,6.372v33.817c0,.276.224.5.5.5h24.586c.348,0,.59-.347.469-.674L24.211,6.199c-.073-.196-.26-.326-.469-.326h-12.054c-.276,0-.5.224-.5.5Z" fill="#5e7461" stroke-width="0"/>
    <path d="M39.203,5.872h38.419c.276,0,.5.224.5.5v65.665c0,.276-.224.5-.5.5h-10.505c-.201,0-.382-.12-.46-.304L38.743,6.568c-.14-.33.102-.696.46-.696Z" fill="#5e7461" stroke-width="0"/>
    <path d="M66.052,122.469h24.796c.276,0,.5-.224.5-.5v-34.357c0-.276-.224-.5-.5-.5h-37.909c-.35,0-.592.351-.467.678l13.113,34.357c.074.194.26.322.467.322Z" fill="#5e7461" stroke-width="0"/>
  </g>
</svg>